HIERARCHY
ROOT root
{
	OFFSET 0.000000 0.000000 0.000000
	CHANNELS 6 Xposition Yposition Zposition Zrotation Yrotation Xrotation
	JOINT lhip
	{
		OFFSET 0.058581 -0.082280 -0.017664
		CHANNELS 3 Zrotation Yrotation Xrotation
		JOINT lknee
		{
			OFFSET 0.043451 -0.386469 0.008037
			CHANNELS 3 Zrotation Yrotation Xrotation
			JOINT lankle
			{
				OFFSET -0.014790 -0.426874 -0.037428
				CHANNELS 3 Zrotation Yrotation Xrotation
				JOINT ltoe
				{
					OFFSET 0.041054 -0.060286 0.122042
					CHANNELS 3 Zrotation Yrotation Xrotation
					End Site
					{
						OFFSET 0.000000 0.000000 0.000000
					}
				}
			}
		}
	}
	JOINT rhip
	{
		OFFSET -0.060310 -0.090513 -0.013543
		CHANNELS 3 Zrotation Yrotation Xrotation
		JOINT rknee
		{
			OFFSET -0.043257 -0.383688 -0.004843
			CHANNELS 3 Zrotation Yrotation Xrotation
			JOINT rankle
			{
				OFFSET 0.019056 -0.420046 -0.034562
				CHANNELS 3 Zrotation Yrotation Xrotation
				JOINT rtoe
				{
					OFFSET -0.034840 -0.062106 0.130323
					CHANNELS 3 Zrotation Yrotation Xrotation
					End Site
					{
						OFFSET 0.000000 0.000000 0.000000
					}
				}
			}
		}
	}
	JOINT lowerback
	{
		OFFSET 0.004439 0.124404 -0.038385
		CHANNELS 3 Zrotation Yrotation Xrotation
		JOINT upperback
		{
			OFFSET 0.004488 0.137956 0.026820
			CHANNELS 3 Zrotation Yrotation Xrotation
			JOINT chest
			{
				OFFSET -0.002265 0.056032 0.002855
				CHANNELS 3 Zrotation Yrotation Xrotation
				JOINT lowerneck
				{
					OFFSET -0.013390 0.211636 -0.033468
					CHANNELS 3 Zrotation Yrotation Xrotation
					JOINT upperneck
					{
						OFFSET 0.010113 0.088937 0.050410
						CHANNELS 3 Zrotation Yrotation Xrotation
						End Site
						{
							OFFSET 0.000000 0.000000 0.000000
						}
					}
				}
				JOINT lclavicle
				{
					OFFSET 0.071702 0.114000 -0.018898
					CHANNELS 3 Zrotation Yrotation Xrotation
					JOINT lshoulder
					{
						OFFSET 0.122921 0.045205 -0.019046
						CHANNELS 3 Zrotation Yrotation Xrotation
						JOINT lelbow
						{
							OFFSET 0.255332 -0.015649 -0.022946
							CHANNELS 3 Zrotation Yrotation Xrotation
							JOINT lwrist
							{
								OFFSET 0.265709 0.012698 -0.007375
								CHANNELS 3 Zrotation Yrotation Xrotation
								End Site
								{
									OFFSET 0.000000 0.000000 0.000000
								}
							}
						}
					}
				}
				JOINT rclavicle
				{
					OFFSET -0.082954 0.112472 -0.023707
					CHANNELS 3 Zrotation Yrotation Xrotation
					JOINT rshoulder
					{
						OFFSET -0.113228 0.046853 -0.008472
						CHANNELS 3 Zrotation Yrotation Xrotation
						JOINT relbow
						{
							OFFSET -0.260127 -0.014369 -0.031269
							CHANNELS 3 Zrotation Yrotation Xrotation
							JOINT rwrist
							{
								OFFSET -0.269108 0.006794 -0.006027
								CHANNELS 3 Zrotation Yrotation Xrotation
								End Site
								{
									OFFSET 0.000000 0.000000 0.000000
								}
							}
						}
					}
				}
			}
		}
	}
}
MOTION
Frames: 14
Frame Time: 0.033333
0.555367 0.222044 0.990623 90.982161 4.423545 95.055024 8.305328 2.962128 -1.196739 3.725220 3.442787 -6.426352 -7.597139 1.113343 -4.745996 0.000000 -0.000000 0.000000 1.841913 -1.040460 -8.263995 -4.722929 -3.998991 7.005369 7.663809 0.830918 -7.101218 0.000000 -0.000000 0.000000 -1.201092 0.085160 -2.393550 2.733259 -3.693513 -6.731390 2.545958 1.866322 -5.184522 1.657494 6.499106 10.657966 1.915924 2.555366 -2.961548 1.628419 -13.533645 -18.193078 -34.093759 -48.393331 -1.770847 129.463994 -48.948505 -98.689289 14.962121 -12.548794 -8.753728 -0.508563 12.248158 -12.435379 17.901854 43.877565 -10.758968 -131.305410 50.826139 -101.407100 -14.614062 9.618576 -9.992596 
0.555645 0.222071 0.990448 91.111509 4.464620 94.939291 8.380401 3.297275 -1.217851 3.710881 2.646859 -6.232555 -7.617540 1.534337 -4.869972 0.000000 -0.000000 0.000000 1.975276 -1.285995 -8.245564 -4.736888 -3.424344 7.204358 7.667812 0.283370 -7.170145 0.000000 -0.000000 0.000000 -1.136558 -0.035788 -2.248062 2.714410 -3.789340 -7.155051 2.634912 1.933553 -4.963001 1.702866 6.500089 12.170007 1.851678 2.892386 -1.904197 2.795953 -14.250701 -18.450265 -31.586208 -48.869183 -3.660335 127.062449 -50.082005 -96.263626 16.453339 -12.514283 -8.484173 -1.831503 12.775105 -12.602438 15.297419 44.172383 -13.086605 -128.575290 52.384916 -98.308731 -16.501525 10.193712 -9.081371 
0.555799 0.222110 0.990259 91.170992 4.463739 94.907410 8.390018 3.522123 -1.256048 3.704459 2.135663 -6.172645 -7.636452 1.839446 -4.874660 0.000000 -0.000000 0.000000 2.038796 -1.325717 -8.253942 -4.751825 -2.996912 7.288029 7.705340 -0.265760 -7.208063 0.000000 -0.000000 0.000000 -1.092170 -0.115943 -2.111706 2.642161 -3.857926 -7.376917 2.613378 1.933834 -4.955885 1.869206 6.371398 13.407568 1.911764 3.424973 -1.010708 3.629581 -14.811879 -18.559589 -29.178229 -48.998863 -5.229583 125.927428 -50.403076 -95.389659 18.435857 -13.054776 -8.247396 -2.886952 13.204409 -12.758794 13.413398 44.123894 -14.655919 -126.373394 52.868520 -96.534488 -17.323676 10.536282 -9.316596 
0.556057 0.222388 0.989946 91.227892 4.436719 94.884908 8.371157 3.960902 -1.293872 3.703043 1.414453 -6.169485 -7.752798 2.135819 -4.833848 0.000000 -0.000000 0.000000 2.077763 -1.531060 -8.165247 -4.730614 -2.487500 7.094481 7.885876 -0.678861 -7.160316 0.000000 -0.000000 0.000000 -0.848238 0.080373 -1.324902 2.348844 -3.859070 -8.060167 2.414119 1.740830 -5.263837 2.038775 6.164549 14.398733 2.077867 3.866833 -0.427062 4.401387 -14.944877 -18.780972 -27.591849 -48.926578 -6.212878 126.163312 -50.585464 -95.200415 23.456917 -12.723559 -6.761175 -3.652496 13.049967 -13.150865 12.679364 43.774338 -15.440156 -125.662864 53.201443 -96.241827 -19.117523 10.624331 -9.831516 
0.556166 0.222549 0.989472 91.220141 4.495087 94.988389 8.463830 4.031585 -1.347877 3.639882 1.216078 -6.291951 -7.712512 2.293052 -4.816755 0.000000 -0.000000 0.000000 2.128684 -1.665891 -8.205247 -4.638934 -2.183435 6.900751 7.868584 -0.920829 -7.135111 0.000000 -0.000000 0.000000 -0.946051 -0.183142 -1.705057 2.476940 -3.964417 -7.881136 2.579261 1.988679 -4.789224 1.664624 5.908762 15.131978 2.130856 4.215006 -0.241996 4.499399 -14.979694 -19.030991 -26.032686 -48.744566 -7.022156 127.236285 -49.470132 -96.593490 25.484646 -12.500070 -7.035694 -3.842381 13.306130 -13.117155 10.665762 43.063995 -16.729309 -125.687428 52.748656 -96.735180 -20.152490 10.968997 -9.265865 
0.556077 0.222444 0.989675 91.154823 4.418525 95.126490 8.385049 3.914817 -1.445866 3.628041 1.343008 -6.356830 -7.723867 2.367319 -4.792784 0.000000 -0.000000 0.000000 2.066683 -1.645605 -8.311679 -4.643833 -2.179704 6.762570 8.052789 -0.886987 -7.056345 0.000000 -0.000000 0.000000 -0.823354 0.154406 -1.293574 2.237388 -3.811145 -8.282803 2.283470 1.735197 -5.100179 1.928783 5.721420 15.928750 2.201554 4.090048 0.408833 4.611013 -14.484940 -18.876722 -25.392349 -48.963207 -7.541600 128.535797 -48.590306 -98.517636 25.288411 -12.568945 -8.564572 -3.775346 12.429886 -13.249428 11.014903 42.857865 -16.554982 -126.965268 51.921468 -97.929363 -19.613567 11.240315 -9.483927 
0.556169 0.222610 0.989441 91.076591 4.479841 95.060816 8.444805 4.129587 -1.364815 3.651617 1.082613 -6.355082 -7.703975 2.467633 -4.927242 0.000000 -0.000000 0.000000 2.132164 -1.747312 -8.192520 -4.603572 -1.929657 6.606009 8.109023 -1.015790 -6.986975 0.000000 -0.000000 0.000000 -0.845776 0.141671 -1.273220 2.302732 -3.779161 -8.022208 2.329019 1.797347 -5.212578 1.995972 5.629448 16.842342 2.124240 4.112004 0.835800 4.130040 -14.333100 -18.769200 -24.667766 -48.691873 -8.246091 129.754850 -48.682088 -99.192087 26.667321 -13.031899 -8.025077 -3.294413 12.261628 -12.826212 10.052307 42.394164 -17.402114 -128.277088 51.635716 -99.076828 -20.963739 11.836764 -9.546576 
0.556172 0.222737 0.988797 91.015914 4.653225 94.941627 8.654595 4.374938 -1.255458 3.631975 0.804132 -6.325734 -7.745198 2.574052 -5.096066 0.000000 -0.000000 0.000000 2.309549 -1.828259 -8.055229 -4.525987 -1.603267 6.520781 8.045668 -1.282224 -6.975741 0.000000 -0.000000 0.000000 -1.123543 -0.301979 -1.732806 2.693265 -3.882245 -7.463365 2.761517 2.258619 -4.759520 1.724605 5.712512 17.801605 1.988508 4.417160 0.825389 3.370748 -14.594120 -18.594552 -23.590835 -47.966331 -8.921432 130.357588 -48.942551 -99.690233 27.602197 -13.330154 -7.139731 -2.683745 12.825658 -12.137651 8.229824 41.604611 -18.603170 -129.100249 51.773950 -99.767911 -23.054602 12.377471 -8.063888 
0.556078 0.222589 0.988550 90.999490 4.670794 94.861940 8.708884 4.513670 -1.203717 3.603277 0.553481 -6.287419 -7.710215 2.706443 -5.156770 0.000000 -0.000000 0.000000 2.349164 -1.850251 -8.011943 -4.523105 -1.479602 6.573241 8.030154 -1.398646 -7.020437 0.000000 -0.000000 0.000000 -1.049831 -0.130016 -1.344574 2.610586 -3.800259 -8.059405 2.668972 2.001376 -4.557225 1.912594 5.669432 18.401402 1.931273 4.605655 1.353435 3.137793 -14.695226 -18.221905 -23.224420 -47.587255 -8.956792 130.072102 -49.531782 -99.857224 28.405577 -13.340682 -6.950191 -2.470180 12.616098 -11.885159 8.791731 41.464826 -18.016742 -129.867159 51.845394 -100.624792 -24.676088 12.668083 -7.994009 
0.555595 0.222566 0.988321 91.025874 4.715428 94.780044 8.794389 4.651043 -1.241544 3.568417 0.296568 -6.144089 -7.705693 2.797255 -5.156755 0.000000 -0.000000 0.000000 2.427245 -1.845430 -8.041440 -4.533481 -1.267903 6.714918 8.024798 -1.701434 -6.965277 0.000000 -0.000000 0.000000 -1.055672 -0.094918 -1.218176 2.623311 -3.879257 -8.139596 2.687230 1.923282 -4.285928 1.978605 5.782392 18.938312 1.981550 4.900884 1.502046 3.082622 -14.865877 -18.072730 -22.986966 -47.289195 -9.226932 129.824040 -50.513201 -99.412108 30.006069 -13.640630 -5.736222 -2.442733 12.655379 -11.630138 9.234981 41.460764 -17.839475 -130.416912 52.053350 -100.885987 -26.529929 13.115181 -7.127524 
0.555025 0.222556 0.988259 91.021724 4.746868 94.699220 8.853115 4.805810 -1.249350 3.533780 0.161014 -6.055900 -7.756976 2.813329 -5.140049 0.000000 -0.000000 0.000000 2.486004 -1.842203 -8.060759 -4.562253 -1.194139 6.818372 8.042650 -1.778536 -6.904604 0.000000 -0.000000 0.000000 -1.109607 -0.156315 -1.065648 2.679641 -3.953867 -8.153164 2.738905 1.952764 -4.172950 2.143710 5.930603 19.890272 2.094634 5.149609 1.654867 3.090346 -15.064018 -17.950055 -22.979746 -47.143487 -9.327303 129.620361 -51.340729 -98.874903 31.231386 -13.910479 -5.170542 -2.421690 12.795711 -11.442387 9.642741 41.624448 -17.756397 -130.659436 52.504447 -100.740219 -28.251462 13.474457 -6.480803 
0.554300 0.222598 0.988286 91.009945 4.715493 94.727697 8.815970 4.794941 -1.325554 3.519016 0.212602 -6.063137 -7.716354 2.778032 -5.087395 0.000000 -0.000000 0.000000 2.445220 -1.796869 -8.179379 -4.583628 -1.269805 6.893836 8.062914 -1.727187 -6.893913 0.000000 -0.000000 0.000000 -1.205232 -0.135144 -0.949720 2.718667 -4.006979 -8.210311 2.725256 1.904022 -4.149374 2.315294 5.957336 20.890229 2.246908 5.297329 1.964366 3.239008 -15.218775 -17.723437 -22.905171 -47.230543 -9.265753 129.369468 -51.591243 -98.862324 31.507620 -14.109160 -5.265921 -2.394980 12.944279 -11.138209 10.041390 41.797161 -17.516437 -130.437457 52.582187 -100.578296 -28.369184 13.512813 -6.497720 
0.553536 0.222790 0.988201 90.940301 4.718420 94.749604 8.806534 4.915813 -1.390416 3.505634 0.012009 -6.085684 -7.762308 2.948790 -5.069466 0.000000 -0.000000 0.000000 2.462077 -1.808564 -8.274876 -4.597917 -1.097762 6.873546 8.106551 -1.849476 -6.843724 0.000000 -0.000000 0.000000 -1.189684 -0.068075 -0.775348 2.694640 -4.012378 -8.359033 2.674530 1.913705 -4.112386 2.467631 5.875606 22.262267 2.608297 5.242133 2.160164 3.428613 -15.441825 -17.348335 -22.658372 -47.327369 -9.651741 129.406874 -51.913371 -98.700381 32.527579 -14.269565 -5.686862 -2.319059 13.045011 -10.547074 9.981073 41.742999 -17.865043 -130.417455 52.990019 -100.405674 -29.807295 13.715699 -6.619557 
0.552539 0.223029 0.988281 90.893054 4.717052 94.822765 8.769219 4.783910 -1.509198 3.520754 0.146182 -6.113612 -7.622488 2.950159 -4.943629 0.000000 -0.000000 0.000000 2.429586 -1.794993 -8.423081 -4.589856 -1.159966 6.853470 8.100433 -1.764120 -6.758347 0.000000 -0.000000 0.000000 -1.206706 0.029719 -0.894637 2.744760 -4.040797 -8.040852 2.634251 1.982927 -4.078313 2.523281 5.750700 23.376573 2.729012 5.328820 2.476486 3.527024 -15.360582 -17.225625 -23.123633 -47.317930 -9.283171 128.966328 -52.033691 -98.410470 32.892435 -14.080755 -5.495458 -2.267135 12.985167 -10.289541 10.444109 41.600552 -17.551128 -130.500812 52.969408 -100.159804 -29.977790 13.933058 -5.359376 
